<?xml version="1.0" encoding="UTF-8" standalone="no"?>
<svg
   width="29"
   height="28"
   viewBox="0 0 34 33"
   fill="none"
   version="1.1"
   id="svg4"
   sodipodi:docname="instagram-icon.svg"
   inkscape:version="1.1 (c68e22c387, 2021-05-23)"
   xmlns:inkscape="http://www.inkscape.org/namespaces/inkscape"
   xmlns:sodipodi="http://sodipodi.sourceforge.net/DTD/sodipodi-0.dtd"
   xmlns="http://www.w3.org/2000/svg"
   xmlns:svg="http://www.w3.org/2000/svg">
  <defs
     id="defs8" />
  <sodipodi:namedview
     id="namedview6"
     pagecolor="#ffffff"
     bordercolor="#999999"
     borderopacity="1"
     inkscape:pageshadow="0"
     inkscape:pageopacity="0"
     inkscape:pagecheckerboard="0"
     showgrid="false"
     inkscape:zoom="11.409091"
     inkscape:cx="5.7410359"
     inkscape:cy="18.2749"
     inkscape:window-width="1920"
     inkscape:window-height="1009"
     inkscape:window-x="-8"
     inkscape:window-y="-8"
     inkscape:window-maximized="1"
     inkscape:current-layer="svg4" />
  <path
     d="M 23.972167,0.5313745 H 9.7778331 c -4.8995743,0 -8.8714586,3.9718843 -8.8714586,8.8714586 V 23.597167 c 0,4.899626 3.9718843,8.871458 8.8714586,8.871458 H 23.972167 c 4.899626,0 8.871458,-3.971832 8.871458,-8.871458 V 9.4028331 c 0,-4.8995743 -3.971832,-8.8714586 -8.871458,-8.8714586 z M 29.73868,23.597167 c -0.0098,3.180692 -2.585821,5.756706 -5.766513,5.766513 H 9.7778331 C 6.5971539,29.353873 4.0211275,26.777859 4.011385,23.597167 V 9.4028331 C 4.0211275,6.2221539 6.5971539,3.6461275 9.7778331,3.636385 H 23.972167 c 3.180692,0.00974 5.756706,2.5857689 5.766513,5.7664481 z M 27.077113,8.0721143 c 0,0.9798607 -0.794367,1.7743563 -1.774292,1.7743563 -0.979796,0 -1.774292,-0.7944956 -1.774292,-1.7743563 0,-0.9799123 0.794496,-1.7742917 1.774292,-1.7742917 0.979925,0 1.774292,0.7943794 1.774292,1.7742917 z M 16.875,8.5156873 c -4.409663,0 -7.9843127,3.5746497 -7.9843127,7.9843127 0,4.409663 3.5746497,7.984313 7.9843127,7.984313 4.409663,0 7.984313,-3.57465 7.984313,-7.984313 0.0048,-2.118956 -0.835014,-4.152617 -2.333291,-5.651022 C 21.027617,9.3507012 18.993956,8.5109128 16.875,8.5156873 Z m 0,12.8635507 c -2.69473,0 -4.879238,-2.184508 -4.879238,-4.879238 0,-2.69473 2.184508,-4.879238 4.879238,-4.879238 2.69473,0 4.879238,2.184508 4.879238,4.879238 0,2.69473 -2.184508,4.879238 -4.879238,4.879238 z"
     fill="#0b758b"
     id="path2"
     style="stroke-width:1.29039" />
</svg>
